<svg id="e1voGJxWX941" xmlns="http://www.w3.org/2000/svg" xmlns:xlink="http://www.w3.org/1999/xlink" viewBox="0 0 300 300" shape-rendering="geometricPrecision" text-rendering="geometricPrecision" project-id="2ab81d080311418fbd268d406bc578ed" export-id="6f6375e8ca114c45b33ca0dbe4933700" cached="false"><defs><linearGradient id="e1voGJxWX948-fill" x1="0.757468" y1="-0.054297" x2="0.222263" y2="0.828042" spreadMethod="pad" gradientUnits="objectBoundingBox" gradientTransform="translate(0 0)"><stop id="e1voGJxWX948-fill-0" offset="0%" stop-color="#ac7ebc"/><stop id="e1voGJxWX948-fill-1" offset="100%" stop-color="#b404f2"/></linearGradient><linearGradient id="e1voGJxWX9411-fill" x1="1.257814" y1="-2.366494" x2="0.5" y2="0.500001" spreadMethod="pad" gradientUnits="objectBoundingBox" gradientTransform="translate(0 0)"><stop id="e1voGJxWX9411-fill-0" offset="0%" stop-color="#3d1c58"/><stop id="e1voGJxWX9411-fill-1" offset="100%" stop-color="#000"/></linearGradient><linearGradient id="e1voGJxWX9414-fill" x1="0.065768" y1="0.192337" x2="1.886907" y2="-1.284453" spreadMethod="pad" gradientUnits="objectBoundingBox" gradientTransform="translate(0 0)"><stop id="e1voGJxWX9414-fill-0" offset="0%" stop-color="#d7d7d7"/><stop id="e1voGJxWX9414-fill-1" offset="100%" stop-color="#282828"/></linearGradient><linearGradient id="e1voGJxWX9415-fill" x1="0.065768" y1="0.192337" x2="1.886907" y2="-1.284453" spreadMethod="pad" gradientUnits="objectBoundingBox" gradientTransform="translate(0 0)"><stop id="e1voGJxWX9415-fill-0" offset="0%" stop-color="#d7d7d7"/><stop id="e1voGJxWX9415-fill-1" offset="100%" stop-color="#282828"/></linearGradient><linearGradient id="e1voGJxWX9416-fill" x1="0.065768" y1="0.192337" x2="1.886907" y2="-1.284453" spreadMethod="pad" gradientUnits="objectBoundingBox" gradientTransform="translate(0 0)"><stop id="e1voGJxWX9416-fill-0" offset="0%" stop-color="#d7d7d7"/><stop id="e1voGJxWX9416-fill-1" offset="100%" stop-color="#282828"/></linearGradient><linearGradient id="e1voGJxWX9417-fill" x1="0.463579" y1="0.5" x2="1.581652" y2="-0.5" spreadMethod="pad" gradientUnits="objectBoundingBox" gradientTransform="translate(0 0)"><stop id="e1voGJxWX9417-fill-0" offset="0%" stop-color="#b404f2"/><stop id="e1voGJxWX9417-fill-1" offset="100%" stop-color="#3d1c58"/></linearGradient></defs><g transform="matrix(.482911 0 0 0.482912 10.528608 158.047808)"><g transform="matrix(10 0 0 10-226.949556-1055.032799)"><g transform="translate(-1.619548-.052722)"><path d="M21.587782,119.118358c-.175236-1.628486,1.131546-8.543333,3.499109-8.017155.572442.000001,1.830842,7.6484,1.87662,8.089046" transform="translate(1.61695 5.75799)" fill="#ffbd70" stroke="#000" stroke-width="0.9"/><path d="M29.86864,122.349793c.216067.000002,1.801624,0,2.460684,0c1.560689-.000001,1.560693,1.817372-.000002,1.817372h-2.460682c-.003382-.908687-.058591-1.711157,0-1.817372Z" transform="matrix(1 0 0 1.000054-1.140405 3.259811)" fill="#af4dd1" stroke="#000"/><ellipse rx="0.337727" ry="0.337727" transform="matrix(-.022221 1.25036-.836412-.014864 26.9863 123.243)" stroke="#000" stroke-width="0"/><path d="M23.459881,124.985332c0,0-.397432,9.496184.081367,9.845171c7.604363.004424,7.746844.10474,9.423961-.180133c1.08139-.139663,2.031562-1.32309,2.538491-1.803898.436993-.430572-3.467818-.443814-6.709902-1.031463c0-4.289031.150677-7.351408,0-6.901568-3.303732.045268-5.346241.000001-5.333917.071891Z" transform="matrix(1.000001 0 0 0.999071-.255149-.037092)" fill="url(#e1voGJxWX948-fill)" stroke="#000" stroke-width="0.9"/><rect width="4.36426" height="1.96943" rx="0" ry="0" transform="matrix(1.22969 0.012019 0.003808-.389609 23.048845 125.05485)" fill="#050505" stroke="#000" stroke-width="0"/><g transform="translate(.710392 0.550475)"><rect width="2.538493" height="1.040516" rx="0" ry="0" transform="translate(31.999701 125.454211)" fill="url(#e1voGJxWX9411-fill)" stroke="#000" stroke-width="0.5"/><rect width="1.205989" height="1.040516" rx="0" ry="0" transform="matrix(.954862 0 0 1 34.616876 125.454212)" fill="#fff" stroke="#000" stroke-width="0.5"/></g></g></g><g transform="matrix(1.546633 0 0 1.546633 267.246719-14.76181)"><rect width="94.599" height="23.3051" rx="2" ry="2" transform="translate(84.322 103.39)" fill="url(#e1voGJxWX9414-fill)" stroke="#000" stroke-width="6"/><rect width="94.599" height="23.3051" rx="2" ry="2" transform="translate(84.322 150)" fill="url(#e1voGJxWX9415-fill)" stroke="#000" stroke-width="6"/><rect width="94.599" height="23.3051" rx="2" ry="2" transform="translate(84.322 173.305)" fill="url(#e1voGJxWX9416-fill)" stroke="#000" stroke-width="6"/><rect width="94.599" height="23.3051" rx="2" ry="2" transform="translate(113.128 126.695)" fill="url(#e1voGJxWX9417-fill)" stroke="#000" stroke-width="6"/></g><path d="M81.5,55C63.18,62.28,57.28,68.18,50,86.5C42.72,68.18,36.82,62.28,18.5,55C36.82,47.72,42.72,41.82,50,23.5C57.28,41.82,63.18,47.72,81.5,55Z" transform="matrix(.301111 0 0 0.301113 81.848597 100.327319)" fill="#ae59cc" stroke="#000" stroke-width="20"/><path d="M81.5,55C63.18,62.28,57.28,68.18,50,86.5C42.72,68.18,36.82,62.28,18.5,55C36.82,47.72,42.72,41.82,50,23.5C57.28,41.82,63.18,47.72,81.5,55Z" transform="matrix(.301111 0 0 0.301113 113.778108 132.409815)" fill="#ae59cc" stroke="#000" stroke-width="20"/><path d="M81.5,55C63.18,62.28,57.28,68.18,50,86.5C42.72,68.18,36.82,62.28,18.5,55C36.82,47.72,42.72,41.82,50,23.5C57.28,41.82,63.18,47.72,81.5,55Z" transform="matrix(.301111 0 0 0.301113 146.033885 91.277873)" fill="#ae59cc" stroke="#000" stroke-width="20"/></g></svg>
