<svg id="enPbdkKYzZo1" xmlns="http://www.w3.org/2000/svg" xmlns:xlink="http://www.w3.org/1999/xlink" viewBox="0 0 300 300" shape-rendering="geometricPrecision" text-rendering="geometricPrecision" project-id="cefae8a14eed483f9faa889c88833ae4" export-id="87959519166743d999b6e3fb643d7795" cached="false"><defs><linearGradient id="enPbdkKYzZo3-fill" x1="0.25" y1="0.25" x2="1.02248" y2="0.52248" spreadMethod="pad" gradientUnits="objectBoundingBox" gradientTransform="translate(0 0)"><stop id="enPbdkKYzZo3-fill-0" offset="0%" stop-color="#17003a"/><stop id="enPbdkKYzZo3-fill-1" offset="100%" stop-color="#fff"/></linearGradient><linearGradient id="enPbdkKYzZo4-fill" x1="0.25" y1="0.25" x2="1.02248" y2="0.52248" spreadMethod="pad" gradientUnits="objectBoundingBox" gradientTransform="translate(0 0)"><stop id="enPbdkKYzZo4-fill-0" offset="0%" stop-color="#17003a"/><stop id="enPbdkKYzZo4-fill-1" offset="100%" stop-color="#fff"/></linearGradient></defs><g mask="url(#enPbdkKYzZo5)"><path d="M156.329949,55C94.489801,79.574033,74.574033,99.489801,50,161.329949C25.425967,99.489801,5.510199,79.574033,-56.329949,55C5.510199,30.425967,25.425967,10.510199,50,-51.329949C74.574033,10.510199,94.489801,30.425967,156.329949,55Z" transform="matrix(1.294319 1.294319-1.294319 1.294319 156.471597 14.096467)" fill="url(#enPbdkKYzZo3-fill)"/><path d="M156.329949,55C94.489801,79.574033,74.574033,99.489801,50,161.329949C25.425967,99.489801,5.510199,79.574033,-56.329949,55C5.510199,30.425967,25.425967,10.510199,50,-51.329949C74.574033,10.510199,94.489801,30.425967,156.329949,55Z" transform="matrix(-.647149-.647149 0.647149-.647149 146.764255 217.950653)" fill="url(#enPbdkKYzZo4-fill)"/><mask id="enPbdkKYzZo5" mask-type="alpha" x="-150%" y="-150%" height="400%" width="400%"><rect width="300.373256" height="300.373256" rx="0" ry="0" transform="translate(-.373256-.373256)" fill="#d2dbed" stroke-width="0"/></mask></g></svg>
