<svg id="eLMw6EskV8Y1" xmlns="http://www.w3.org/2000/svg" xmlns:xlink="http://www.w3.org/1999/xlink" viewBox="0 0 78 78" shape-rendering="geometricPrecision" text-rendering="geometricPrecision" project-id="5733cbd7efca4288af61353d1f73b2e5" export-id="4e731bad784841c5be9a54f7918c78ff" cached="false"><g><path d="M36.493333,77.289114h-33.419166C1.376351,77.289114,0,75.918765,0,74.228354h36.523083c12.768554.061731,24.60026-6.663462,31.038231-17.642262s6.504125-24.543268.173542-35.583798-18.096136-17.879805-30.864689-17.941535L0,3.060759C0,1.370349,1.376351,0,3.074167,0h33.796c10.309752.010463,20.192631,4.100203,27.472493,11.368687s11.359765,17.1197,11.34134,27.384478c-.0595,21.366076-17.740917,38.535949-39.190667,38.535949Z" fill="#5468ff"/><path d="M0,69.04481h23.71075c2.931618.010258,5.761219-1.070865,7.933333-3.031139h-31.644083v3.031139Zm0-8.244304h36.374333c.733834-.987341,1.418084-1.974683,2.05275-3.070633h-38.427083v3.070633Zm0-8.254177h41.02525c.406583-.987342.7735-1.974683,1.090833-3.060759L0,49.48557v3.060759Zm0-8.244304h43.306083c.14875-.987342.26775-2.033924.337167-3.060759h-43.64325v3.060759Zm0-8.244303h43.633333c-.069416-1.036709-.188416-2.063545-.337166-3.070633h-43.296167v3.070633Zm0-8.254178h42.116083c-.317333-1.036709-.68425-2.063544-1.090833-3.060759h-41.02525v3.060759Zm0-8.244303h38.427083c-.631179-1.054564-1.316331-2.076162-2.05275-3.06076h-36.374333v3.06076ZM0,8.244304v3.070633h31.673833c-2.171089-1.961933-5.001362-3.043313-7.933333-3.03114L0,8.244304Z" fill="#21243d"/></g></svg>
